<?xml version="1.0" encoding="UTF-8" standalone="no"?>
<!-- Created with Inkscape (http://www.inkscape.org/) -->

<svg
   version="1.1"
   id="svg854"
   width="208.65518"
   height="208.65518"
   viewBox="0 0 208.65518 208.65518"
   sodipodi:docname="logo.svg"
   inkscape:version="1.1.1 (3bf5ae0d25, 2021-09-20)"
   xmlns:inkscape="http://www.inkscape.org/namespaces/inkscape"
   xmlns:sodipodi="http://sodipodi.sourceforge.net/DTD/sodipodi-0.dtd"
   xmlns="http://www.w3.org/2000/svg"
   xmlns:svg="http://www.w3.org/2000/svg">
  <defs
     id="defs858" />
  <sodipodi:namedview
     id="namedview856"
     pagecolor="#ffffff"
     bordercolor="#666666"
     borderopacity="1.0"
     inkscape:pageshadow="2"
     inkscape:pageopacity="0.0"
     inkscape:pagecheckerboard="0"
     showgrid="false"
     inkscape:zoom="1.085"
     inkscape:cx="155.76037"
     inkscape:cy="161.29032"
     inkscape:window-width="1916"
     inkscape:window-height="1057"
     inkscape:window-x="2560"
     inkscape:window-y="19"
     inkscape:window-maximized="1"
     inkscape:current-layer="g860"
     fit-margin-top="0"
     fit-margin-left="0"
     fit-margin-right="0"
     fit-margin-bottom="0" />
  <g
     inkscape:groupmode="layer"
     inkscape:label="Image"
     id="g860"
     transform="translate(-96.603295,-95.184157)">
    <path
       style="fill:#000000;stroke-width:0.521638"
       d="M 96.603295,199.51175 V 95.184157 H 200.93089 305.25848 V 199.51175 303.83934 H 200.93089 96.603295 Z"
       id="path944" />
    <path
       style="fill:#ffffff"
       d="m 187.35308,218.27075 20.61541,-35.74099 -0.2688,-22.75901 -0.2688,-22.759 h -10.5 -10.5 l -0.5,34 -0.5,34 -7.59942,-14 c -4.17968,-7.7 -12.25307,-22.775 -17.94086,-33.5 -5.6878,-10.725 -10.81807,-19.83928 -11.40059,-20.25394 -0.58252,-0.41467 -5.33413,-0.63967 -10.55913,-0.5 l -9.5,0.25394 v 55.5 55.5 h 10.5 10.5 l 0.5,-34 0.5,-34 9.38371,17.5 c 5.16103,9.625 11.10365,20.65216 13.2058,24.50479 l 3.82211,7.00479 -5.45481,12.49521 c -5.21371,11.94294 -5.95902,13.84728 -5.05342,12.91188 0.22187,-0.22917 9.68033,-16.50012 21.0188,-36.15767 z"
       id="path1404" />
    <path
       style="fill:#ffffff"
       d="m 268.3491,274.90476 c 2.32645,-0.89274 2.32645,-17.89328 0,-18.78602 -0.86998,-0.33385 -10.31998,-0.60699 -21,-0.60699 h -19.41821 v -39.48038 -39.48038 l 5.96959,-13.7167 c 3.28327,-7.54418 5.82619,-13.86009 5.65092,-14.03536 -0.17527,-0.17527 -8.03658,13.06215 -17.46959,29.41648 l -17.15092,29.73515 v 31.84634 c 0,20.04014 0.38377,32.56341 1.03518,33.78059 0.98801,1.8461 2.3972,1.93426 30.91822,1.93426 16.43566,0 30.59483,-0.27314 31.46481,-0.60699 z"
       id="path1402" />
  </g>
</svg>
